<svg width="60" height="60" viewBox="0 0 60 60" fill="none" xmlns="http://www.w3.org/2000/svg">
<g clip-path="url(#clip0_1_19)">
<path d="M58.8861 26.7792C57.8806 25.4756 56.3611 24.7278 54.717 24.7278H49.2903C49.3127 24.1448 49.324 23.5589 49.324 22.9705C49.324 21.9999 48.5372 21.2131 47.5666 21.2131H1.75732C0.786772 21.213 -2.50802e-05 21.9999 -2.50802e-05 22.9705C-2.50802e-05 33.421 3.55345 43.0797 9.49497 49.3313H1.75732C1.14818 49.3313 0.582514 49.6467 0.262358 50.1648C-0.0577985 50.6829 -0.086861 51.3299 0.185366 51.8745C2.65122 56.8061 7.73388 59.9927 13.1343 59.9927H36.1924C41.591 59.9927 46.6725 56.8061 49.1383 51.8745C49.4107 51.3297 49.3816 50.6829 49.0613 50.1648C48.7412 49.6467 48.1755 49.3313 47.5664 49.3313H39.8287C40.8852 48.2198 41.8661 47.0007 42.7651 45.6884C46.511 45.2574 50.1798 43.7369 53.182 41.3554C56.4613 38.7541 58.8188 35.2223 59.8204 31.4107C60.2465 29.7896 59.9059 28.1015 58.8861 26.7792ZM33.5075 34.2426V38.7869H29.9927V34.2426L31.75 32.4853L33.5075 34.2426ZM44.2493 52.8226C42.1844 55.0895 39.2538 56.4779 36.1926 56.4779H13.1345C10.0718 56.4779 7.14009 55.0895 5.0749 52.8226H44.2493ZM34.5793 49.3312H14.7446C8.17333 44.3765 3.97779 35.1152 3.55076 24.7278H29.9927V29.2721L26.9927 32.2721C26.6632 32.6017 26.4779 33.0486 26.4779 33.5148V40.5443C26.4779 41.5148 27.2647 42.3016 28.2352 42.3016H35.2647C36.2353 42.3016 37.0221 41.5148 37.0221 40.5443V33.5148C37.0221 33.0487 36.8368 32.6018 36.5073 32.2721L33.5073 29.2721V24.7044H45.7729C45.3931 33.9485 41.8392 43.8575 34.5793 49.3312ZM56.4212 30.5172C55.0449 35.7548 50.5541 40.0397 45.1373 41.6332C47.1165 37.6465 48.4527 33.0868 49.0182 28.2426H54.7168C55.4642 28.2426 55.906 28.6706 56.1027 28.9257C56.452 29.3784 56.568 29.9585 56.4212 30.5172Z" fill="#5AB963"/>
<path d="M37.2574 14.5145C37.0098 14.2928 36.0849 13.2687 36.0849 12.309C36.0849 11.3886 36.9591 10.3777 37.2573 10.1036C38.7522 8.76493 39.5756 7.05164 39.5756 5.27953C39.5756 3.50742 38.7523 1.79414 37.2573 0.455511C36.5343 -0.19195 35.4233 -0.130661 34.7757 0.592386C34.1282 1.31555 34.1895 2.42649 34.9126 3.07395C35.6636 3.7466 36.0608 4.50926 36.0608 5.27942C36.0608 6.04957 35.6639 6.81246 34.9127 7.485C34.6728 7.69981 32.5702 9.65907 32.5702 12.309C32.5702 14.959 34.6729 16.9182 34.9127 17.133C35.6361 17.7807 36.747 17.719 37.3942 16.9961C38.0416 16.273 37.9804 15.162 37.2574 14.5145ZM26.7131 14.5145C26.4655 14.2928 25.5406 13.2687 25.5406 12.309C25.5406 11.3886 26.4148 10.3777 26.713 10.1036C28.2079 8.76493 29.0313 7.05164 29.0313 5.27953C29.0313 3.50742 28.208 1.79414 26.713 0.455511C25.9899 -0.19195 24.879 -0.130661 24.2314 0.592386C23.5839 1.31555 23.6452 2.42649 24.3683 3.07395C25.1193 3.7466 25.5165 4.50926 25.5165 5.27942C25.5165 6.04957 25.1196 6.81246 24.3684 7.485C24.1286 7.69981 22.0259 9.65907 22.0259 12.309C22.0259 14.959 24.1286 16.9182 24.3684 17.133C25.0918 17.7807 26.2027 17.719 26.85 16.9961C27.4973 16.273 27.436 15.162 26.7131 14.5145ZM16.1688 14.5145C15.9212 14.2928 14.9963 13.2687 14.9963 12.309C14.9963 11.3886 15.8705 10.3777 16.1687 10.1036C17.6636 8.76493 18.487 7.05164 18.487 5.27953C18.487 3.50742 17.6637 1.79414 16.1687 0.455511C15.4456 -0.19195 14.3346 -0.130661 13.6871 0.592386C13.0396 1.31555 13.1009 2.42649 13.824 3.07395C14.575 3.7466 14.9722 4.50926 14.9722 5.27942C14.9722 6.04957 14.5753 6.81246 13.8241 7.485C13.5842 7.69981 11.4816 9.65907 11.4816 12.309C11.4816 14.959 13.5843 16.9182 13.8241 17.133C14.5474 17.7807 15.6584 17.719 16.3057 16.9961C16.953 16.273 16.8917 15.162 16.1688 14.5145Z" fill="black"/>
</g>
<defs>
<clipPath id="clip0_1_19">
<rect width="60" height="60" fill="white"/>
</clipPath>
</defs>
</svg>
